<svg width="806" height="806" viewBox="0 0 806 806" fill="none" xmlns="http://www.w3.org/2000/svg">
<path d="M0 90C0 40.2944 40.2944 0 90 0H716C765.706 0 806 40.2944 806 90V716C806 765.706 765.706 806 716 806H90C40.2944 806 0 765.706 0 716V90Z" fill="#F0F0F0"/>
<path d="M434.864 736V368.475H497.869L542.497 512.86H550.372V368.475H618.627V736H555.623L510.995 591.615H503.119V736H434.864Z" fill="#0095F4"/>
<path d="M324.114 736V368.475H403.394V736H324.114Z" fill="#0095F4"/>
<path d="M430.015 161.425H425.879C417.329 158.943 406.16 156.461 392.371 153.979C378.582 151.221 366.448 149.842 355.968 149.842C322.599 149.842 298.33 157.288 283.162 172.18C268.27 186.796 260.824 213.409 260.824 252.018V267.738H401.058V333.098H263.306V729.808H185.536V333.098H133V267.738H185.536V252.432C185.536 197.552 199.187 155.495 226.489 126.263C253.792 96.7542 293.228 82 344.799 82C362.173 82 377.755 82.8273 391.544 84.482C405.609 86.1367 418.432 88.0672 430.015 90.2734V161.425Z" fill="#0095F4"/>
<path d="M486.998 335.11L535.928 175H565.286L516.265 335.11H486.998ZM466.429 287.267C455.193 287.267 446.464 283.824 440.242 276.937C434.081 269.991 431 260.748 431 249.21V216.319C431 204.116 433.93 194.753 439.789 188.229C445.649 181.705 454.529 178.443 466.429 178.443C478.329 178.443 487.209 181.705 493.069 188.229C498.988 194.753 501.948 204.116 501.948 216.319V249.21C501.948 260.748 498.837 269.991 492.615 276.937C486.454 283.824 477.725 287.267 466.429 287.267ZM466.429 263.527C468.785 263.527 470.778 262.681 472.409 260.99C474.04 259.238 474.856 257.094 474.856 254.556V210.52C474.856 206.955 474.342 204.147 473.315 202.093C472.288 200.039 469.993 199.012 466.429 199.012C462.925 199.012 460.63 200.069 459.542 202.183C458.516 204.237 458.002 207.016 458.002 210.52V254.556C458.002 257.094 458.818 259.238 460.449 260.99C462.08 262.681 464.073 263.527 466.429 263.527ZM583.951 336.741C572.716 336.741 563.987 333.297 557.765 326.411C551.603 319.464 548.523 310.222 548.523 298.684V265.792C548.523 253.59 551.452 244.227 557.312 237.703C563.171 231.179 572.051 227.917 583.951 227.917C595.852 227.917 604.732 231.179 610.591 237.703C616.511 244.227 619.471 253.59 619.471 265.792V298.684C619.471 310.222 616.36 319.464 610.138 326.411C603.976 333.297 595.248 336.741 583.951 336.741ZM583.951 313.001C586.307 313.001 588.301 312.155 589.932 310.463C591.563 308.712 592.378 306.567 592.378 304.03V259.993C592.378 256.429 591.865 253.62 590.838 251.566C589.811 249.512 587.515 248.486 583.951 248.486C580.448 248.486 578.152 249.543 577.065 251.657C576.038 253.711 575.525 256.49 575.525 259.993V304.03C575.525 306.567 576.34 308.712 577.971 310.463C579.602 312.155 581.596 313.001 583.951 313.001Z" fill="#E95406"/>
</svg>
