<svg width="1024" height="1024" viewBox="0 0 1024 1024" fill="none" xmlns="http://www.w3.org/2000/svg">
<path d="M934 0C983.706 0 1024 40.2944 1024 90V934C1024 983.706 983.706 1024 934 1024H90C40.2944 1024 0 983.706 0 934V90C0 40.2944 40.2944 0 90 0H934Z" fill="#F0F0F0"/>
<path d="M838.433 242.046L728.485 243.618C673.45 244.405 654.903 247.257 634.606 258.956C614.679 270.437 598.687 297.168 586.63 339.15L581.721 356.242L726.974 354.166L725.996 425.729L563.869 428.046L439.978 859.406L359.756 836.365L374.453 785.194L508.838 317.294C525.977 257.621 553.193 215.935 590.486 192.238C627.864 168.241 672.457 161.946 729.613 161.129L839.56 159.557L838.433 242.046Z" fill="#0095F4"/>
<path d="M308.374 863.291L439.427 861.417L373.974 810.475L189.302 547.074L115.166 604.002L308.374 863.291Z" fill="#0095F4"/>
<rect x="582" y="543" width="75" height="321" fill="#E95406"/>
<rect x="674" y="487" width="75" height="377" fill="#E95406"/>
<rect x="765" y="406" width="75" height="458" fill="#E95406"/>
<path d="M323.141 488.717V161.55H344.1V488.717H323.141ZM378.733 269.541C377.711 259.232 373.323 251.223 365.57 245.514C357.817 239.806 347.295 236.952 334.004 236.952C324.972 236.952 317.347 238.23 311.128 240.786C304.908 243.257 300.137 246.707 296.814 251.138C293.576 255.568 291.958 260.595 291.958 266.218C291.787 270.904 292.767 274.994 294.897 278.487C297.112 281.98 300.137 285.004 303.971 287.56C307.805 290.031 312.235 292.204 317.262 294.078C322.289 295.867 327.656 297.401 333.365 298.679L356.88 304.302C368.296 306.858 378.776 310.266 388.318 314.526C397.861 318.786 406.125 324.026 413.111 330.245C420.098 336.465 425.508 343.792 429.342 352.227C433.261 360.662 435.263 370.332 435.348 381.237C435.263 397.255 431.174 411.142 423.08 422.9C415.071 434.572 403.484 443.646 388.318 450.121C373.238 456.511 355.048 459.706 333.748 459.706C312.618 459.706 294.215 456.469 278.539 449.993C262.947 443.518 250.764 433.933 241.988 421.239C233.298 408.459 228.74 392.654 228.314 373.825H281.861C282.458 382.601 284.971 389.928 289.402 395.807C293.917 401.6 299.924 405.988 307.421 408.97C315.004 411.867 323.567 413.315 333.109 413.315C342.481 413.315 350.617 411.952 357.519 409.225C364.505 406.499 369.915 402.708 373.749 397.851C377.583 392.995 379.5 387.414 379.5 381.11C379.5 375.231 377.754 370.289 374.26 366.285C370.852 362.28 365.826 358.872 359.18 356.061C352.62 353.249 344.568 350.693 335.026 348.393L306.527 341.236C284.46 335.869 267.037 327.476 254.257 316.06C241.477 304.643 235.129 289.264 235.215 269.924C235.129 254.077 239.347 240.232 247.867 228.389C256.472 216.547 268.272 207.302 283.267 200.657C298.262 194.011 315.302 190.689 334.387 190.689C353.812 190.689 370.767 194.011 385.251 200.657C399.82 207.302 411.152 216.547 419.246 228.389C427.34 240.232 431.514 253.949 431.77 269.541H378.733Z" fill="#E95406"/>
</svg>
